# xmcd
#
# Track frame offsets:
# 150
# 16538
# 27546
# 38774
# 49608
# 60637
# 71864
# 91347
# 105325
# 119376
# 134962
# 150482
# 170470
#
# Disc length: 2401 seconds
#
# Revision: 1
# Processed by: cddbd v1.5.2PL0 Copyright (c) Steve Scherf et al.
# Submitted via: CedeCatalogueitor 2.6.0.6 http://personales.ya.com/cdcatalogueitor
#
DISCID=a8095f0d
DTITLE=Caballero Reynaldo - Tic Tac Toe
DYEAR=1900
DGENRE=
TTITLE0=Moonchild
TTITLE1=All Of Me
TTITLE2=If You Leave Me Now
TTITLE3=Love Of My Life
TTITLE4=Sweet Georgia Brown
TTITLE5=California Girls
TTITLE6=This Is The Life
TTITLE7=Don't Stop
TTITLE8=I See Red
TTITLE9=Magial Misery Tour
TTITLE10=Tragedy and Mistery
TTITLE11=Long Distance Runaround
TTITLE12=How To Find Love and Happiness In The Present Day
EXTD=
EXTT0=
EXTT1=
EXTT2=
EXTT3=
EXTT4=
EXTT5=
EXTT6=
EXTT7=
EXTT8=
EXTT9=
EXTT10=
EXTT11=
EXTT12=
PLAYORDER=
